<?xml version="1.0" encoding="UTF-8"?>
<svg id="Layer_2" xmlns="http://www.w3.org/2000/svg" viewBox="0 0 134 133">
  <defs>
    <style>
      .cls-1 {
        fill: #ba4242;
      }

      .cls-2 {
        fill: #26368d;
      }

      .cls-3 {
        fill: #c2494e;
      }

      .cls-4 {
        fill: #ffb64d;
      }
    </style>
  </defs>
  <g id="style">
    <g>
      <circle class="cls-3" cx="66.5" cy="66.5" r="66.5"/>
      <circle class="cls-3" cx="67.5" cy="66.5" r="66.5"/>
      <path class="cls-2" d="M67.5,128.5c-34.19,0-62-27.81-62-62S33.31,4.5,67.5,4.5s62,27.81,62,62-27.81,62-62,62Z"/>
      <path class="cls-4" d="M69.01,12.76c1.15.07,1.67,1.46.85,2.26-13.39,13.19-26.87,35.79-26.87,50.98,0,37,44.31,49.61,40,51-31,10-70.21-6.41-71-49-.5-27.09,19.9-57.39,57.01-55.24Z"/>
      <polygon class="cls-1" points="69 36 85 50 108.86 36 101 62 123 77 96 81.29 80 106 79 79 57 73 72 60 69 36"/>
    </g>
  </g>
</svg>