<?xml version="1.0" encoding="UTF-8"?>
<svg id="Layer_2" xmlns="http://www.w3.org/2000/svg" viewBox="0 0 133 133">
  <defs>
    <style>
      .cls-1 {
        fill: #efd897;
      }

      .cls-2 {
        fill: #ba4242;
      }

      .cls-3 {
        fill: #26368d;
      }

      .cls-4 {
        fill: #ffcc50;
      }
    </style>
  </defs>
  <g id="style">
    <g>
      <circle class="cls-3" cx="66.5" cy="66.5" r="66.5"/>
      <path class="cls-2" d="M66.5,127c-33.36,0-60.5-27.14-60.5-60.5S33.14,6,66.5,6s60.5,27.14,60.5,60.5-27.14,60.5-60.5,60.5Z"/>
      <path class="cls-1" d="M51.75,13.17c-1.11.28-1.58,1.94-.51,2.36,17.5,6.87,34.5,19.87,37.5,42.87,6.13,46.98-34.46,60.26-30,61,32.13,5.34,67-13,62-63-2.7-27.03-30-53-68.99-43.23Z"/>
      <path class="cls-4" d="M41.74,33.4l4,9,5-10,2,11,7-9v11l9-4-5,10h11.74c.26,0-8.74,10-8.74,10l8,2-6,4,9,7-11,1,7,10-10-3,3,10-8-4,1,8.26-7-7.26-3,12-4-12-6,9v-13.36l-9,8.36,2-13-12,4,7-10-12-3,9.07-4.5-8.07-5.5,9-3-5-6,8,1-5-9,8,4,1-9,7,6,2-12Z"/>
    </g>
  </g>
</svg>