<?xml version="1.0" encoding="UTF-8"?>
<svg id="Layer_2" xmlns="http://www.w3.org/2000/svg" viewBox="0 0 134 133">
  <defs>
    <style>
      .cls-1 {
        fill: #26368d;
      }

      .cls-2 {
        fill: #fe664e;
      }

      .cls-3 {
        fill: #c2494e;
      }

      .cls-4 {
        fill: #ffb64d;
      }
    </style>
  </defs>
  <g id="style">
    <g>
      <circle class="cls-3" cx="66.5" cy="66.5" r="66.5"/>
      <circle class="cls-3" cx="67.5" cy="66.5" r="66.5"/>
      <path class="cls-1" d="M67.5,129c-34.46,0-62.5-28.04-62.5-62.5S33.04,4,67.5,4s62.5,28.04,62.5,62.5-28.04,62.5-62.5,62.5Z"/>
      <path class="cls-4" d="M69.01,12.76c1.15.07,1.67,1.46.85,2.26-13.39,13.19-26.87,35.79-26.87,50.98,0,37,44.31,49.61,40,51-31,10-70.21-6.41-71-49-.5-27.09,19.9-57.39,57.01-55.24Z"/>
      <path class="cls-2" d="M84,25c1,0,5.43,11,5.43,11l6.57-8s1,14,2,14,8.19-8.5,8.19-8.5l-2.19,13.5,14-2-8,11h13.46l-10.46,8,11.98,7-12.98,2,5,6-8,2,4,8-8.51-3.3-1.49,8.3-7-6-2,14-7-10-2.14,10-4.86-10-8,6,2-10-11,4,5-11-12-1,9-11-9-1.33,6-5.67-10-7,13-2-6-11,9,2-3-11,9,6v-9l7.3,6"/>
    </g>
  </g>
</svg>