<?xml version="1.0" encoding="UTF-8"?>
<svg id="Layer_2" xmlns="http://www.w3.org/2000/svg" viewBox="0 0 133 133">
  <defs>
    <style>
      .cls-1 {
        fill: #ba4242;
      }

      .cls-2 {
        fill: #26368d;
      }

      .cls-3 {
        fill: #fe664e;
      }
    </style>
  </defs>
  <g id="style">
    <g>
      <circle class="cls-2" cx="66.5" cy="66.5" r="66.5"/>
      <path class="cls-1" d="M66.5,127c-33.36,0-60.5-27.14-60.5-60.5S33.14,6,66.5,6s60.5,27.14,60.5,60.5-27.14,60.5-60.5,60.5Z"/>
      <path class="cls-3" d="M64,7l7,17,10-14,2,19,13.86-11-1.86,24,18-8-11,20,19,4-12.97,8.5,12.97,10.13-19,3.37,11,13-16-4s12,15,9,15-13.5-3.24-13.5-3.24l-1.5,11.24-12-9-1,19-10-17-6,18-6-16-13,11,2-15-16,5,10-17-21-1,12-14s-11-5-10-5,11-9,11-9l-18-8,18-4-11-19,13,5-2-19,13,15V12l12,13,8-18Z"/>
    </g>
  </g>
</svg>