<?xml version="1.0" encoding="UTF-8"?>
<svg id="Layer_2" xmlns="http://www.w3.org/2000/svg" viewBox="0 0 133 133">
  <defs>
    <style>
      .cls-1 {
        fill: #efd897;
      }

      .cls-2 {
        fill: #f3ca56;
      }

      .cls-3 {
        fill: #26368d;
      }

      .cls-4 {
        fill: #ff7759;
      }
    </style>
  </defs>
  <g id="style">
    <g>
      <circle class="cls-2" cx="66.5" cy="66.5" r="66.5"/>
      <path class="cls-1" d="M66.5,127c-33.36,0-60.5-27.14-60.5-60.5S33.14,6,66.5,6s60.5,27.14,60.5,60.5-27.14,60.5-60.5,60.5Z"/>
      <polygon class="cls-4" points="58 10 69 30 76 11 78.98 30 94 16 90 35 104 27 98 44 118 39 103 54 118 57.22 101 66 117 76 96 79 110 99 90 92 94 114 80 100 79 122 67 105 61 120 58 104.97 47 120 48 98 36 107 41 90 20 96 33 81 14 81 29 70 11 64 28 61 28 57 18 46 35 49 35 44 27 28 46 38 45 19 56 31 58 10"/>
      <path class="cls-3" d="M66.5,98.5c-17.64,0-32-14.36-32-32s14.36-32,32-32,32,14.36,32,32-14.36,32-32,32Z"/>
    </g>
  </g>
</svg>