<?xml version="1.0" encoding="UTF-8"?>
<svg id="Layer_2" xmlns="http://www.w3.org/2000/svg" viewBox="0 0 133 133">
  <defs>
    <style>
      .cls-1 {
        fill: #efd897;
      }

      .cls-2 {
        fill: #ff6c52;
      }

      .cls-3 {
        fill: #ffdb5f;
      }
    </style>
  </defs>
  <g id="style">
    <g>
      <circle class="cls-1" cx="66.5" cy="66.5" r="66.5"/>
      <path class="cls-2" d="M66.5,127c-33.36,0-60.5-27.14-60.5-60.5S33.14,6,66.5,6s60.5,27.14,60.5,60.5-27.14,60.5-60.5,60.5Z"/>
      <polygon class="cls-3" points="56 10.5 67 29.5 74 11.5 78.69 29.5 91 16.5 90 36.5 102 26.5 98 43.5 117 38.5 101 55.5 116 57.5 103 67.5 112 77.5 97 79.5 110 99.5 91 92.5 95 114.5 81 101.5 80 122.5 66 105.5 62.98 122.5 59 107.5 48 119.5 48 100.95 36 109.5 40 92.5 21 98.5 30 84.5 14 85.5 27 74.5 10.88 66.5 25 61.5 15 48.5 32 49.5 22 28.5 44 38.5 43 21.5 53 30.5 56 10.5"/>
    </g>
  </g>
</svg>