<?xml version="1.0" encoding="UTF-8"?>
<svg id="Layer_2" xmlns="http://www.w3.org/2000/svg" xmlns:xlink="http://www.w3.org/1999/xlink" viewBox="0 0 1627 152.16">
  <defs>
    <style>
      .cls-1 {
        fill: #ffc450;
      }

      .cls-2 {
        fill: #ba4242;
      }

      .cls-3 {
        fill: #ff654d;
      }

      .cls-4 {
        fill: #26368d;
      }
    </style>
    <symbol id="footer_-_orig" data-name="footer - orig" viewBox="0 0 1627 152.16">
      <g>
        <path class="cls-4" d="M.09,2.96c105.03,55.15,441.69,123.1,812.77,124.62,407.55,1.67,814.13-96.17,814.13-127.57v151.7S-4.36,152.13,0,151.7c.03,0,.09-148.75.09-148.75Z"/>
        <path class="cls-2" d="M.09,40.99c133.08,26.33,441.36,92.97,812.45,94.48,407.55,1.67,699.64-67.44,814.46-94.48v110.98S1.15,152.39.09,151.97c-.03-.01,0-110.98,0-110.98Z"/>
        <path class="cls-3" d="M.04,70.67c132.99,19.67,442.92,70.79,814.01,72.3,407.55,1.67,679.57-53.86,812.95-73.95v83.05S.18,149.87.09,148.97c0-.03-.05-78.3-.05-78.3Z"/>
        <path class="cls-1" d="M.04,109.98c132.99,13.11,441.7,37.58,812.83,37.58,413.59,0,680.75-28.19,814.13-41.58v46.05S-4.36,152.31,0,152.03c.03,0,.03-42.05.03-42.05Z"/>
      </g>
    </symbol>
  </defs>
  <g id="header__x2F__foot__x2F__menu">
    <use width="1627" height="152.16" xlink:href="#footer_-_orig"/>
  </g>
</svg>